<svg width="390" height="691" viewBox="0 0 390 691" fill="none" xmlns="http://www.w3.org/2000/svg">
<g filter="url(#filter0_f_518_1024)">
<circle cx="195.5" cy="344.5" r="116.5" fill="white"/>
</g>
<path d="M251.89 411.115C251.89 416.115 248.021 420.196 243.293 420.196H143.486C138.758 420.196 134.886 416.115 134.886 411.115V315.834C134.886 310.841 138.758 306.754 143.486 306.754H243.293C248.021 306.754 251.89 310.841 251.89 315.834V411.115Z" fill="url(#paint0_linear_518_1024)"/>
<path d="M251.89 314.535H134.886V412.417H251.89V314.535Z" fill="#BE202E"/>
<path d="M255.363 332.422H131.416V314.8C131.416 310.373 135.398 306.754 140.265 306.754H246.515C251.383 306.754 255.363 310.373 255.363 314.8V332.422Z" fill="url(#paint1_linear_518_1024)"/>
<path d="M255.363 335.32C255.363 336.009 254.832 336.569 254.184 336.569H132.597C131.948 336.569 131.416 336.009 131.416 335.32V317.35C131.416 316.663 131.948 316.103 132.597 316.103H254.184C254.833 316.103 255.363 316.663 255.363 317.35V335.32H255.363Z" fill="#BE202E"/>
<path d="M251.89 336.569H134.886V346.282H251.89V336.569Z" fill="#AA1F28"/>
<path d="M235.194 304.423C235.194 304.423 250.851 286.392 284 295.419C269.742 302.922 267.709 304.278 267.709 304.278C267.709 304.278 271.475 307.346 274.803 311.691C278.134 316.04 280.548 322.351 280.548 322.351C280.548 322.351 258.695 304.919 235.271 309.211L235.194 304.423Z" fill="#F6AC20"/>
<path d="M198.067 292.981C198.067 292.981 237.374 254.238 248.427 273.249C256.957 287.922 259.122 302.008 242.165 306.566C225.205 311.124 204.188 305.53 204.188 305.53L198.067 292.981Z" fill="#F7C11E"/>
<path d="M247.402 295.659C241.43 284.887 212.264 301.783 204.993 306.225C208.394 307.043 222.509 310.095 236.021 308.269C244.046 306.524 251.394 302.855 247.402 295.659Z" fill="#AA1F28"/>
<path d="M153.807 304.423C153.807 304.423 138.151 286.392 105 295.419C119.258 302.922 121.292 304.278 121.292 304.278C121.292 304.278 117.527 307.346 114.2 311.691C110.868 316.04 108.454 322.351 108.454 322.351C108.454 322.351 130.306 304.919 153.731 309.211L153.807 304.423Z" fill="#F6AC20"/>
<path d="M190.934 292.981C190.934 292.981 151.629 254.238 140.574 273.249C132.044 287.922 129.882 302.008 146.836 306.566C163.796 311.124 184.815 305.53 184.815 305.53L190.934 292.981Z" fill="#F7C11E"/>
<path d="M141.6 295.659C147.572 284.887 176.738 301.783 184.01 306.225C180.605 307.043 166.492 310.095 152.983 308.269C144.958 306.524 137.606 302.855 141.6 295.659Z" fill="#AA1F28"/>
<path d="M194.926 307.251C190.733 307.251 186.938 306.244 184.191 304.615C181.44 302.985 179.879 299.75 182.407 296.646C186.749 291.311 183.613 288.878 187.367 286.219C189.533 284.684 190.828 284.982 194.926 284.982C199.023 284.982 200.32 284.684 202.486 286.219C206.24 288.878 203.106 291.311 207.446 296.646C209.974 299.75 208.412 302.985 205.662 304.615C202.918 306.243 199.119 307.251 194.926 307.251Z" fill="#D85B29"/>
<path d="M209.746 418.364C209.746 420.365 208.197 422 206.301 422H183.718C181.823 422 180.274 420.365 180.274 418.364V308.591C180.274 306.588 181.822 304.954 183.718 304.954H206.301C208.197 304.954 209.746 306.588 209.746 308.591V418.364Z" fill="#F59E22"/>
<path d="M208.628 305.937V421.014C209.309 420.351 209.746 419.414 209.746 418.363V308.59C209.746 307.539 209.308 306.601 208.628 305.937Z" fill="#F59E22"/>
<path d="M181.393 305.937V421.014C180.712 420.351 180.274 419.414 180.274 418.363V308.59C180.275 307.539 180.712 306.601 181.393 305.937Z" fill="#F59E22"/>
<defs>
<filter id="filter0_f_518_1024" x="-151" y="-2" width="693" height="693" filterUnits="userSpaceOnUse" color-interpolation-filters="sRGB">
<feFlood flood-opacity="0" result="BackgroundImageFix"/>
<feBlend mode="normal" in="SourceGraphic" in2="BackgroundImageFix" result="shape"/>
<feGaussianBlur stdDeviation="115" result="effect1_foregroundBlur_518_1024"/>
</filter>
<linearGradient id="paint0_linear_518_1024" x1="193.388" y1="307.129" x2="193.388" y2="461.093" gradientUnits="userSpaceOnUse">
<stop stop-color="#BE202E"/>
<stop offset="0.0606" stop-color="#ED3026"/>
<stop offset="0.1333" stop-color="#BE202E"/>
<stop offset="0.8788" stop-color="#BE202E"/>
<stop offset="0.9455" stop-color="#ED3026"/>
<stop offset="1" stop-color="#BE202E"/>
</linearGradient>
<linearGradient id="paint1_linear_518_1024" x1="193.39" y1="306.839" x2="193.39" y2="341.675" gradientUnits="userSpaceOnUse">
<stop stop-color="#BE202E"/>
<stop offset="0.2182" stop-color="#ED3026"/>
<stop offset="0.3636" stop-color="#BE202E"/>
<stop offset="0.8242" stop-color="#BE202E"/>
<stop offset="0.9455" stop-color="#ED3026"/>
<stop offset="1" stop-color="#BE202E"/>
</linearGradient>
</defs>
</svg>
