<svg width="20" height="21" viewBox="0 0 20 21" fill="none" xmlns="http://www.w3.org/2000/svg">
<path d="M5 8.83341V7.16675C5 4.40841 5.83333 2.16675 10 2.16675C14.1667 2.16675 15 4.40841 15 7.16675V8.83341" stroke="#192854" stroke-width="1.5" stroke-linecap="round" stroke-linejoin="round"/>
<path d="M9.99984 15.9167C11.1504 15.9167 12.0832 14.9839 12.0832 13.8333C12.0832 12.6827 11.1504 11.75 9.99984 11.75C8.84924 11.75 7.9165 12.6827 7.9165 13.8333C7.9165 14.9839 8.84924 15.9167 9.99984 15.9167Z" stroke="#192854" stroke-width="1.5" stroke-linecap="round" stroke-linejoin="round"/>
<path d="M14.1665 18.8333H5.83317C2.49984 18.8333 1.6665 17.9999 1.6665 14.6666V12.9999C1.6665 9.66659 2.49984 8.83325 5.83317 8.83325H14.1665C17.4998 8.83325 18.3332 9.66659 18.3332 12.9999V14.6666C18.3332 17.9999 17.4998 18.8333 14.1665 18.8333Z" stroke="#192854" stroke-width="1.5" stroke-linecap="round" stroke-linejoin="round"/>
</svg>
