<svg width="40" height="40" viewBox="0 0 40 40" fill="none" xmlns="http://www.w3.org/2000/svg">
<path d="M24.2498 11.6667H20.7498C18.1806 11.6667 16.9756 12.5785 16.7246 14.7826C16.6721 15.2437 17.054 15.6251 17.5181 15.6251H19.2498C22.7498 15.6251 24.3748 17.2501 24.3748 20.7501V22.4818C24.3748 22.9459 24.7562 23.3278 25.2173 23.2753C27.4214 23.0243 28.3331 21.8193 28.3331 19.2501V15.7501C28.3331 12.8334 27.1665 11.6667 24.2498 11.6667Z" fill="white"/>
<path d="M19.2503 16.6667H15.7503C12.8337 16.6667 11.667 17.8334 11.667 20.7501V24.2501C11.667 27.1667 12.8337 28.3334 15.7503 28.3334H19.2503C22.167 28.3334 23.3337 27.1667 23.3337 24.2501V20.7501C23.3337 17.8334 22.167 16.6667 19.2503 16.6667ZM20.242 21.3751L17.1503 24.4667C17.0337 24.5834 16.8837 24.6417 16.7253 24.6417C16.567 24.6417 16.417 24.5834 16.3003 24.4667L14.7503 22.9167C14.517 22.6834 14.517 22.3084 14.7503 22.0751C14.9837 21.8417 15.3587 21.8417 15.592 22.0751L16.717 23.2001L19.392 20.5251C19.6253 20.2917 20.0003 20.2917 20.2337 20.5251C20.467 20.7584 20.4753 21.1417 20.242 21.3751Z" fill="white"/>
</svg>
