<svg width="15" height="17" viewBox="0 0 15 17" fill="none" xmlns="http://www.w3.org/2000/svg">
<path d="M5.6 12.8916C5.81217 12.8916 6.01566 12.8073 6.16569 12.6572C6.31571 12.5072 6.4 12.3037 6.4 12.0916V7.29155C6.4 7.07938 6.31571 6.8759 6.16569 6.72587C6.01566 6.57584 5.81217 6.49155 5.6 6.49155C5.38783 6.49155 5.18434 6.57584 5.03432 6.72587C4.88429 6.8759 4.8 7.07938 4.8 7.29155V12.0916C4.8 12.3037 4.88429 12.5072 5.03432 12.6572C5.18434 12.8073 5.38783 12.8916 5.6 12.8916ZM13.6 3.29155H10.4V2.49155C10.4 1.85503 10.1471 1.24458 9.69706 0.794497C9.24697 0.344409 8.63652 0.0915527 8 0.0915527H6.4C5.76348 0.0915527 5.15303 0.344409 4.70294 0.794497C4.25286 1.24458 4 1.85503 4 2.49155V3.29155H0.8C0.587827 3.29155 0.384344 3.37584 0.234315 3.52587C0.0842854 3.6759 0 3.87938 0 4.09155C0 4.30373 0.0842854 4.50721 0.234315 4.65724C0.384344 4.80727 0.587827 4.89155 0.8 4.89155H1.6V13.6916C1.6 14.3281 1.85286 14.9385 2.30294 15.3886C2.75303 15.8387 3.36348 16.0916 4 16.0916H10.4C11.0365 16.0916 11.647 15.8387 12.0971 15.3886C12.5471 14.9385 12.8 14.3281 12.8 13.6916V4.89155H13.6C13.8122 4.89155 14.0157 4.80727 14.1657 4.65724C14.3157 4.50721 14.4 4.30373 14.4 4.09155C14.4 3.87938 14.3157 3.6759 14.1657 3.52587C14.0157 3.37584 13.8122 3.29155 13.6 3.29155ZM5.6 2.49155C5.6 2.27938 5.68429 2.0759 5.83432 1.92587C5.98434 1.77584 6.18783 1.69155 6.4 1.69155H8C8.21217 1.69155 8.41566 1.77584 8.56569 1.92587C8.71572 2.0759 8.8 2.27938 8.8 2.49155V3.29155H5.6V2.49155ZM11.2 13.6916C11.2 13.9037 11.1157 14.1072 10.9657 14.2572C10.8157 14.4073 10.6122 14.4916 10.4 14.4916H4C3.78783 14.4916 3.58434 14.4073 3.43431 14.2572C3.28429 14.1072 3.2 13.9037 3.2 13.6916V4.89155H11.2V13.6916ZM8.8 12.8916C9.01217 12.8916 9.21566 12.8073 9.36569 12.6572C9.51572 12.5072 9.6 12.3037 9.6 12.0916V7.29155C9.6 7.07938 9.51572 6.8759 9.36569 6.72587C9.21566 6.57584 9.01217 6.49155 8.8 6.49155C8.58783 6.49155 8.38434 6.57584 8.23432 6.72587C8.08429 6.8759 8 7.07938 8 7.29155V12.0916C8 12.3037 8.08429 12.5072 8.23432 12.6572C8.38434 12.8073 8.58783 12.8916 8.8 12.8916Z" fill="#F26E6E"/>
</svg>
