<svg width="16" height="17" viewBox="0 0 16 17" fill="none" xmlns="http://www.w3.org/2000/svg">
<path d="M15.2051 8.09887C14.9928 8.09887 14.7893 8.18319 14.6392 8.33327C14.4891 8.48335 14.4048 8.6869 14.4048 8.89914V13.7007C14.4048 13.913 14.3205 14.1165 14.1704 14.2666C14.0204 14.4167 13.8168 14.501 13.6046 14.501H2.4008C2.18856 14.501 1.98501 14.4167 1.83493 14.2666C1.68485 14.1165 1.60054 13.913 1.60054 13.7007V2.497C1.60054 2.28475 1.68485 2.0812 1.83493 1.93112C1.98501 1.78104 2.18856 1.69673 2.4008 1.69673H7.20241C7.41466 1.69673 7.61821 1.61242 7.76829 1.46234C7.91837 1.31226 8.00268 1.10871 8.00268 0.896461C8.00268 0.684217 7.91837 0.480665 7.76829 0.330586C7.61821 0.180507 7.41466 0.096193 7.20241 0.096193H2.4008C1.76407 0.096193 1.15342 0.349134 0.703179 0.799372C0.252941 1.24961 0 1.86026 0 2.497V13.7007C0 14.3375 0.252941 14.9481 0.703179 15.3984C1.15342 15.8486 1.76407 16.1016 2.4008 16.1016H13.6046C14.2413 16.1016 14.8519 15.8486 15.3022 15.3984C15.7524 14.9481 16.0054 14.3375 16.0054 13.7007V8.89914C16.0054 8.6869 15.921 8.48335 15.771 8.33327C15.6209 8.18319 15.4173 8.09887 15.2051 8.09887ZM3.20107 8.70708V12.1002C3.20107 12.3125 3.28539 12.516 3.43547 12.6661C3.58554 12.8162 3.7891 12.9005 4.00134 12.9005H7.39448C7.4998 12.9011 7.6042 12.8809 7.7017 12.8411C7.79921 12.8013 7.88789 12.7426 7.96267 12.6684L13.5005 7.12255L15.7733 4.8978C15.8483 4.82341 15.9078 4.7349 15.9485 4.63738C15.9891 4.53986 16.01 4.43526 16.01 4.32961C16.01 4.22397 15.9891 4.11937 15.9485 4.02185C15.9078 3.92433 15.8483 3.83582 15.7733 3.76142L12.3801 0.328271C12.3057 0.253263 12.2172 0.193727 12.1197 0.153099C12.0222 0.11247 11.9176 0.0915527 11.812 0.0915527C11.7063 0.0915527 11.6017 0.11247 11.5042 0.153099C11.4067 0.193727 11.3182 0.253263 11.2438 0.328271L8.98701 2.59303L3.43315 8.13889C3.35898 8.21366 3.3003 8.30235 3.26047 8.39985C3.22065 8.49735 3.20046 8.60176 3.20107 8.70708ZM11.812 2.02484L14.0767 4.2896L12.9403 5.42598L10.6756 3.16122L11.812 2.02484ZM4.80161 9.03519L9.5472 4.2896L11.812 6.55436L7.06637 11.2999H4.80161V9.03519Z" fill="#A7A7A7"/>
</svg>
