<?xml version="1.0" standalone="no"?>
<!DOCTYPE svg PUBLIC "-//W3C//DTD SVG 20010904//EN"
 "http://www.w3.org/TR/2001/REC-SVG-20010904/DTD/svg10.dtd">
<svg version="1.0" xmlns="http://www.w3.org/2000/svg"
 width="150px" height="250px" viewBox="0 0 1225.000000 500.000000"
 preserveAspectRatio="xMidYMid meet">

<g transform="translate(0.000000,500.000000) scale(0.100000,-0.100000)"
fill="#ffffff" stroke="none">
<path d="M2635 4788 c-2 -7 -6 -66 -10 -130 l-6 -118 58 0 c32 0 75 -3 96 -6
36 -6 37 -6 37 25 l0 31 -66 0 -67 0 7 96 c6 76 4 99 -6 105 -19 13 -38 11
-43 -3z"/>
<path d="M2267 4777 l-79 -10 6 -31 c3 -17 10 -75 17 -128 l11 -96 32 4 c92
13 159 24 162 27 2 1 1 13 -3 25 -5 23 -9 23 -128 8 -5 0 -11 11 -13 27 -3 25
0 27 30 27 57 0 78 10 78 36 0 23 -2 24 -56 18 -43 -5 -58 -4 -65 7 -15 24
-11 28 39 34 74 10 82 14 82 41 0 27 5 26 -113 11z"/>
<path d="M2967 4728 c-13 -18 -49 -70 -80 -115 l-56 -82 31 -6 c21 -5 33 -3
39 6 23 42 33 46 76 37 36 -8 44 -14 51 -40 6 -23 16 -34 35 -39 34 -9 34 -6
2 124 -40 162 -53 176 -98 115z m33 -93 c0 -27 -1 -28 -24 -19 -12 5 -13 9 -3
25 16 26 27 24 27 -6z"/>
<path d="M1927 4706 c-26 -7 -50 -16 -53 -19 -4 -3 8 -58 25 -122 17 -64 31
-118 31 -120 0 -7 116 28 142 43 102 60 46 235 -74 231 -13 0 -44 -6 -71 -13z
m96 -45 c29 -11 52 -61 43 -96 -6 -24 -54 -55 -84 -55 -13 0 -46 130 -36 140
5 4 18 10 29 13 11 3 21 5 22 6 1 0 13 -3 26 -8z"/>
<path d="M3323 4553 c-48 -121 -49 -128 -27 -137 27 -10 31 -7 48 35 12 30 21
39 32 35 9 -3 17 -6 19 -6 2 0 7 -21 11 -46 7 -49 32 -84 60 -84 12 0 15 6 10
26 -19 75 -19 80 13 112 54 53 35 113 -46 147 -79 33 -74 36 -120 -82z m112
25 c38 -17 31 -54 -9 -51 -37 3 -46 13 -35 41 10 26 10 26 44 10z"/>
<path d="M1505 4541 c-23 -12 -48 -34 -58 -50 -37 -63 -11 -153 54 -187 87
-45 207 34 195 129 -12 99 -105 151 -191 108z m114 -67 c27 -35 27 -75 -1
-101 -34 -30 -56 -35 -88 -18 -38 20 -54 68 -35 105 17 32 27 38 72 39 23 1
37 -6 52 -25z"/>
<path d="M3590 4439 c-30 -56 -56 -107 -58 -113 -1 -6 36 -31 83 -56 72 -38
87 -43 95 -30 17 26 11 34 -45 64 -55 28 -62 39 -46 65 7 11 18 8 61 -15 43
-23 53 -26 61 -13 16 25 10 34 -36 59 -47 26 -49 28 -39 54 5 13 15 11 65 -17
51 -27 61 -30 69 -17 5 8 10 20 10 25 0 9 -128 86 -155 93 -5 1 -35 -44 -65
-99z"/>
<path d="M1270 4402 l-23 -19 41 -55 c23 -30 42 -57 42 -61 0 -3 -40 5 -90 19
-69 19 -95 22 -110 14 -11 -6 -20 -13 -20 -16 0 -10 142 -204 148 -204 4 0 15
7 26 15 17 13 16 17 -22 71 -23 32 -40 60 -38 62 2 2 45 -8 94 -21 86 -24 91
-24 106 -8 15 17 11 25 -55 117 -40 54 -73 100 -74 102 -1 1 -13 -6 -25 -16z"/>
<path d="M3835 4298 c-37 -51 -68 -99 -69 -106 -1 -8 7 -19 17 -26 14 -9 21
-6 41 18 l23 30 35 -22 c49 -30 83 -28 119 7 33 33 36 61 13 99 -13 23 -94 92
-107 92 -2 0 -35 -42 -72 -92z m113 -4 c27 -18 29 -50 4 -63 -17 -9 -31 -4
-70 25 -5 4 29 54 37 54 4 0 17 -7 29 -16z"/>
<path d="M4073 4141 c-72 -79 -82 -105 -57 -156 33 -71 122 -98 175 -52 15 12
46 43 69 70 42 46 42 48 25 68 -19 20 -19 19 -85 -46 -36 -36 -70 -65 -76 -65
-22 0 -64 42 -64 63 0 13 25 46 62 84 61 61 61 63 43 83 -10 11 -21 20 -24 20
-3 -1 -34 -31 -68 -69z"/>
<path d="M4260 4183 c-8 -3 -26 -10 -40 -15 -24 -9 -24 -10 -6 -24 21 -15 65
-18 104 -8 l23 7 -22 23 c-23 24 -32 27 -59 17z"/>
<path d="M929 4123 l-49 -48 86 -93 c83 -89 87 -92 105 -76 25 22 24 26 -7 64
-38 44 -22 56 52 41 50 -10 60 -9 76 6 27 25 23 31 -36 43 -50 10 -54 13 -65
50 -13 44 -35 60 -81 60 -24 0 -43 -11 -81 -47z m105 -26 c8 -13 6 -22 -11
-39 -22 -21 -23 -21 -43 -3 l-20 18 22 24 c24 26 36 26 52 0z"/>
<path d="M744 3920 c-31 -39 -55 -72 -53 -74 16 -15 176 -143 185 -149 7 -4
37 25 74 70 59 71 62 77 45 90 -27 19 -30 18 -72 -37 -39 -51 -50 -55 -66 -28
-8 11 -2 26 23 57 32 40 33 42 16 59 -17 16 -20 15 -56 -27 -26 -30 -43 -42
-54 -38 -23 9 -20 16 24 72 36 45 38 51 23 63 -9 6 -20 12 -24 12 -5 0 -34
-32 -65 -70z"/>
<path d="M2309 3961 c-16 -16 -29 -40 -29 -53 0 -15 -10 -29 -31 -40 -35 -21
-30 -38 11 -38 16 0 31 -4 34 -8 2 -4 -11 -39 -30 -77 -32 -63 -34 -74 -28
-125 3 -30 12 -68 19 -85 41 -100 205 -205 347 -222 42 -5 49 -9 45 -24 -7
-25 2 -24 31 3 l23 23 -10 -28 c-19 -49 -13 -61 14 -30 19 22 24 24 25 10 0
-9 -5 -16 -11 -15 -6 2 -14 -3 -17 -11 -3 -9 0 -11 8 -6 9 5 11 4 6 -3 -15
-24 38 -12 66 15 22 21 28 23 28 10 0 -9 5 -28 12 -42 l11 -25 20 32 20 33 13
-38 c13 -38 53 -101 60 -95 1 2 -1 20 -5 40 -12 53 0 56 25 7 l21 -42 7 36
c10 52 23 46 36 -18 6 -30 15 -55 20 -55 26 0 80 -264 80 -390 0 -79 -24 -239
-45 -300 -8 -25 -12 -34 -10 -20 18 88 17 116 -14 212 -33 101 -139 320 -204
420 -36 56 -38 57 -89 61 l-53 3 63 2 c52 2 67 6 87 27 27 26 31 57 15 101
-12 30 -22 26 -25 -9 -2 -32 -17 -26 -41 17 -20 36 -21 36 -39 16 -18 -20 -75
-28 -75 -10 0 5 -7 7 -15 4 -11 -5 -15 1 -15 19 0 21 -4 24 -22 19 -17 -4 -20
-2 -15 11 5 15 -7 16 -126 11 -233 -9 -439 -25 -458 -35 -35 -18 -52 -68 -47
-133 4 -48 17 -85 61 -172 98 -196 193 -436 212 -535 l7 -35 -35 4 c-19 2 -38
-1 -41 -7 -9 -15 -66 -2 -91 21 -39 37 -235 122 -235 102 0 -2 15 -11 33 -20
17 -9 65 -38 105 -65 43 -28 80 -46 90 -43 12 4 11 2 -3 -7 -62 -39 -68 -138
-14 -213 19 -26 19 -28 3 -14 -20 17 -22 16 -59 -22 -22 -22 -63 -54 -91 -72
-44 -26 -55 -39 -72 -84 -11 -30 -15 -51 -8 -47 11 6 -9 -19 -70 -85 l-31 -34
-21 34 c-12 19 -31 43 -43 54 l-22 19 6 -35 c18 -105 19 -128 5 -135 -7 -5
-10 -5 -6 0 4 4 -5 33 -21 64 -18 35 -31 78 -35 116 -7 76 -35 160 -48 147
-13 -13 -23 -217 -14 -267 5 -26 11 -35 22 -31 9 4 19 -7 29 -31 13 -31 17
-34 33 -22 9 7 7 2 -5 -11 -12 -13 -24 -22 -27 -19 -43 47 -110 154 -140 223
-33 78 -36 90 -23 103 17 17 20 12 32 -59 6 -41 15 -46 39 -22 24 23 29 57 24
142 -9 130 -67 247 -68 135 0 -18 -3 -33 -8 -33 -13 0 -40 88 -30 102 15 24
50 147 46 165 -2 13 -15 2 -48 -42 -25 -33 -47 -62 -50 -65 -3 -3 -13 -23 -24
-45 -16 -35 -19 -38 -27 -20 -15 39 -10 60 19 72 62 28 116 174 110 298 l-3
60 -22 -35 -22 -35 5 75 c5 61 10 78 28 90 44 31 127 115 117 118 -15 5 -106
-26 -175 -60 -32 -15 -61 -26 -64 -24 -2 3 -2 16 2 29 6 27 45 48 75 40 33 -9
106 34 164 97 53 56 112 148 103 158 -3 2 -30 -10 -61 -27 -30 -17 -55 -28
-55 -25 0 4 9 21 19 38 22 35 64 156 57 163 -2 2 -37 -26 -76 -64 -75 -70
-149 -166 -175 -224 -27 -62 -15 -12 21 92 55 159 51 154 164 202 20 8 62 38
94 67 l57 53 112 -111 c62 -62 117 -112 122 -112 6 1 27 16 47 34 l38 33 -26
24 -26 24 7 -23 c7 -23 -16 -62 -37 -62 -15 0 -55 34 -146 122 l-82 80 34 38
c41 45 61 80 47 80 -6 0 -34 -9 -62 -20 -117 -47 -219 -140 -219 -200 0 -18
-8 -33 -25 -44 -14 -9 -25 -13 -25 -10 0 13 71 129 104 171 19 23 36 48 38 55
4 10 9 10 24 -1 18 -14 18 -14 3 3 -16 17 -15 22 6 70 13 28 26 62 30 74 6 21
5 23 -13 13 -29 -16 -97 -96 -117 -138 -10 -20 -18 -55 -18 -77 0 -27 -9 -56
-28 -87 -68 -110 -154 -332 -190 -488 l-12 -54 -38 75 c-22 41 -53 90 -70 109
l-30 34 6 -65 c4 -36 16 -90 28 -120 19 -46 22 -70 19 -153 l-4 -97 -48 67
c-26 38 -57 76 -68 87 -21 18 -21 18 -16 -20 12 -80 37 -161 67 -217 33 -63
89 -117 122 -117 18 0 22 -10 33 -82 13 -95 15 -104 29 -138 6 -14 14 -35 18
-48 l7 -23 -41 20 c-22 12 -45 21 -52 21 -6 0 -28 13 -48 29 -20 15 -47 34
-60 41 -22 11 -23 11 -16 -6 21 -53 21 -54 -38 -54 -98 0 -80 -24 52 -69 36
-12 72 -32 83 -46 27 -35 81 -65 117 -65 34 0 38 10 16 43 -8 13 -11 28 -6 35
5 9 15 -3 29 -38 12 -29 16 -48 9 -44 -7 4 -4 -1 5 -12 10 -11 31 -49 47 -86
17 -36 51 -95 76 -132 l46 -67 -43 25 c-49 28 -176 78 -189 74 -17 -6 76 -102
135 -140 l60 -38 35 32 c19 18 -4 -11 -52 -65 -53 -59 -85 -103 -81 -110 4 -7
29 -42 57 -79 48 -66 79 -84 90 -54 4 11 14 12 44 5 59 -13 160 -11 199 6 20
8 44 25 54 37 11 13 19 17 20 11 0 -7 -4 -13 -10 -13 -5 0 -10 -8 -10 -17 0
-11 -16 -25 -38 -36 -20 -9 -48 -26 -62 -38 l-25 -21 80 6 80 5 -55 -34 c-30
-18 -79 -50 -109 -72 l-53 -38 55 -3 c64 -3 160 19 227 53 54 27 110 86 110
115 0 27 14 25 84 -14 36 -20 83 -36 114 -40 53 -7 200 -49 235 -68 17 -9 16
-11 -8 -29 -38 -31 -20 -42 21 -14 27 19 41 22 54 15 27 -14 32 -12 25 9 -5
17 8 27 47 35 3 0 9 4 13 8 11 11 -60 1 -83 -11 -17 -9 -28 -8 -52 4 -16 8
-71 26 -121 40 -50 13 -92 26 -94 27 -28 41 -32 53 -28 92 6 50 -23 127 -74
193 -18 24 -33 46 -33 49 0 4 44 52 98 106 107 110 300 291 288 270 -6 -10 25
-48 101 -125 60 -62 131 -138 157 -170 27 -31 52 -57 56 -57 4 0 13 14 20 31
12 28 11 32 -20 64 l-33 34 31 35 c40 46 103 139 131 194 13 25 26 40 33 36 6
-4 9 -1 6 7 -5 15 40 114 48 106 5 -5 -72 -214 -133 -356 -61 -144 -149 -316
-226 -443 -36 -59 -61 -106 -57 -103 22 14 321 461 366 547 66 127 -61 -194
-225 -571 -23 -52 -40 -95 -38 -97 4 -5 246 441 302 558 52 107 58 117 76 107
25 -13 59 -3 59 18 0 12 -3 13 -15 3 -11 -9 -21 -9 -45 1 -16 8 -30 18 -30 22
0 5 5 5 10 2 6 -4 15 8 21 25 l11 31 18 -29 c27 -43 38 -47 68 -21 l27 24 -27
-30 c-24 -28 -25 -32 -13 -55 16 -29 19 -44 6 -36 -9 6 -61 -140 -61 -170 0
-9 11 -29 25 -46 15 -18 25 -42 25 -61 l0 -32 -13 25 c-39 73 -39 73 -48 59
-11 -17 -9 -118 2 -125 5 -3 17 4 29 16 11 11 20 15 20 9 0 -7 9 0 21 15 11
14 25 26 31 26 6 0 26 11 44 25 23 17 35 22 40 13 4 -6 3 -8 -3 -5 -6 4 -17 0
-24 -9 -11 -14 -10 -19 10 -35 24 -20 57 -26 46 -9 -13 21 3 9 17 -12 l15 -23
-104 0 c-81 0 -102 -3 -98 -13 3 -7 1 -11 -4 -8 -5 3 -22 -4 -37 -16 -19 -15
-24 -17 -15 -5 16 20 6 36 -11 19 -7 -7 -16 -12 -22 -12 -5 0 -2 6 9 13 10 8
15 19 11 26 -6 9 -12 9 -25 -3 -16 -15 -93 -46 -113 -46 -5 0 4 11 19 24 l28
25 -22 22 c-18 18 -25 20 -37 10 -8 -7 -19 -10 -25 -7 -5 4 -23 -18 -40 -48
-34 -59 -39 -75 -16 -56 8 6 20 10 26 8 6 -2 0 -12 -15 -21 -17 -12 -26 -14
-26 -5 0 12 -29 -21 -30 -34 0 -4 13 -3 29 2 43 12 91 -2 131 -39 60 -54 279
-155 297 -137 4 3 -5 19 -18 34 -14 15 -33 37 -42 48 l-18 22 58 -14 c32 -8
69 -14 83 -13 24 0 23 1 -15 35 -62 56 -135 94 -170 90 -16 -2 -22 -1 -12 1 9
2 17 11 17 19 0 14 2 14 15 0 8 -8 36 -18 61 -22 60 -9 167 1 172 16 3 7 10 3
19 -9 20 -29 39 -17 104 65 46 58 51 69 40 86 -7 11 -11 21 -9 22 2 1 23 14
48 29 25 14 56 36 70 47 l25 22 -88 -6 c-49 -3 -95 -10 -101 -15 -10 -8 -21
-1 -43 27 l-31 38 28 -4 c16 -2 45 1 64 8 48 16 143 88 185 141 l35 42 -33 -6
c-18 -4 -71 -25 -117 -46 -46 -22 -84 -38 -84 -35 0 2 16 26 35 53 19 27 51
82 70 124 31 68 37 74 60 70 13 -3 35 -3 48 1 28 7 102 78 123 117 8 17 28 32
51 40 21 6 58 21 83 32 39 17 42 20 25 27 -11 5 -39 9 -62 9 -25 1 -43 6 -43
12 0 8 -4 8 -12 2 -7 -6 -35 -15 -61 -22 -64 -16 -93 -36 -106 -73 -6 -17 -14
-29 -16 -26 -11 10 29 93 54 113 14 11 40 21 58 22 52 3 116 55 172 139 28 42
51 80 51 85 0 15 -74 -27 -137 -77 -64 -51 -123 -113 -123 -130 0 -6 -10 -19
-22 -30 -19 -17 -21 -17 -15 -1 4 9 14 54 23 100 20 101 23 107 70 132 44 23
75 65 102 138 23 61 36 137 24 137 -5 0 -26 -24 -48 -53 l-39 -53 2 123 c1
107 4 126 23 152 36 51 79 161 63 161 -18 0 -125 -104 -158 -152 l-33 -50 -7
32 c-8 35 1 52 15 30 8 -13 25 -8 25 8 0 4 12 23 27 43 15 19 35 55 44 80 19
54 35 195 24 223 -6 18 -11 13 -39 -34 -38 -66 -90 -198 -100 -254 l-8 -41
-22 73 c-25 81 -21 129 13 175 28 38 29 167 2 246 -18 51 -19 53 -31 31 -11
-21 -12 -20 -18 23 -4 25 -14 64 -23 87 -15 36 -18 40 -27 24 -14 -24 -13
-233 1 -266 7 -17 8 -37 3 -50 -8 -21 -10 -20 -30 21 -17 37 -19 50 -10 75 15
43 -1 99 -50 173 -46 68 -107 130 -118 119 -4 -4 4 -42 19 -84 26 -70 26 -77
11 -94 -15 -17 -18 -16 -56 19 -47 42 -56 33 -33 -34 19 -55 33 -36 -122 -167
-105 -89 -123 -96 -152 -61 -10 12 -10 18 0 30 23 28 0 30 -27 2 l-27 -26 27
-10 c14 -6 31 -19 37 -31 6 -11 17 -20 24 -20 7 0 68 50 136 111 l123 111 20
-38 c11 -22 31 -54 45 -71 13 -18 22 -33 19 -33 -12 0 34 -115 64 -162 38 -59
77 -88 119 -88 l31 0 -26 48 c-14 26 -50 75 -81 109 l-54 62 30 3 30 3 -24 50
c-13 28 -44 77 -70 108 -38 47 -45 61 -35 73 15 19 28 18 36 -3 4 -10 24 -45
44 -79 37 -59 89 -163 93 -187 1 -7 7 -21 13 -32 13 -25 46 -125 72 -222 16
-58 17 -71 5 -66 -8 3 -14 9 -14 14 0 40 -255 238 -277 215 -8 -7 42 -90 80
-133 47 -53 114 -93 157 -93 40 0 74 -27 68 -54 -2 -13 -11 -10 -48 12 -50 30
-134 62 -165 62 -16 0 -12 -7 20 -41 22 -22 52 -48 68 -57 23 -14 27 -23 27
-62 0 -90 46 -207 91 -230 27 -15 25 -51 -2 -47 -15 3 -29 24 -53 80 -33 76
-71 144 -100 182 -15 19 -15 18 -16 -25 0 -113 40 -250 89 -299 12 -12 33 -21
47 -21 22 0 26 4 22 24 -4 18 0 26 14 30 24 6 23 -17 -7 -166 -13 -68 -34 -36
-35 52 0 32 -3 41 -10 30 -11 -17 -9 -19 -50 48 -17 28 -34 52 -37 52 -7 0 7
-119 18 -157 8 -24 6 -52 -6 -108 -18 -80 -15 -128 11 -156 14 -15 12 -24 -17
-90 -41 -93 -89 -170 -145 -233 -24 -26 -44 -53 -44 -58 0 -7 -5 -6 -14 1 -10
8 -11 22 -5 54 5 23 11 59 14 79 l6 37 20 -20 c35 -35 44 -11 44 109 0 113
-11 190 -25 176 -13 -15 -40 -115 -40 -152 0 -21 -12 -54 -29 -82 -16 -27 -36
-66 -43 -89 -21 -60 -29 -39 -22 51 8 92 -2 100 -42 33 -14 -25 -27 -45 -28
-45 -2 0 -24 28 -50 61 -26 34 -43 58 -36 54 11 -7 7 23 -10 70 -7 19 -7 19
-14 -3 -5 -14 -3 -30 5 -40 12 -15 11 -16 -4 -2 -16 14 -15 23 12 131 16 63
35 162 42 219 16 142 6 414 -20 543 -23 110 -75 299 -98 355 -27 66 -100 169
-173 246 -90 95 -349 295 -483 374 -31 18 -36 25 -28 39 35 66 11 146 -49 163
-63 18 -99 12 -131 -19z m81 -85 c0 -8 -4 -17 -9 -21 -12 -7 -24 12 -16 25 9
15 25 12 25 -4z m-110 -21 c0 -9 -9 -15 -21 -15 -18 0 -19 2 -9 15 7 8 16 15
21 15 5 0 9 -7 9 -15z m32 -222 c-4 -68 -3 -76 12 -70 11 4 16 1 16 -10 0 -12
3 -13 14 -4 12 10 15 6 21 -19 7 -31 7 -31 27 -13 21 18 21 18 14 -12 l-8 -30
24 23 c22 20 25 20 25 5 -1 -10 0 -31 2 -48 l2 -30 16 35 17 35 6 -53 5 -53
20 23 20 23 3 -44 c3 -42 4 -43 18 -22 18 26 34 27 34 4 -1 -41 -13 -45 -78
-24 -189 59 -325 240 -251 335 37 47 47 34 41 -51z m-116 -421 c1 -7 0 -8 -3
-2 -2 5 -20 10 -39 10 -26 0 -33 -3 -28 -12 5 -8 1 -8 -12 2 -10 8 -21 16 -24
18 -2 2 20 2 49 0 34 -2 55 -8 57 -16z m-126 4 c0 -2 -8 -10 -17 -17 -16 -13
-17 -12 -4 4 13 16 21 21 21 13z m-33 -98 c-2 -13 -4 -3 -4 22 0 25 2 35 4 23
2 -13 2 -33 0 -45z m170 30 c-3 -7 -5 -2 -5 12 0 14 2 19 5 13 2 -7 2 -19 0
-25z m-70 -50 c-3 -7 -5 -2 -5 12 0 14 2 19 5 13 2 -7 2 -19 0 -25z m461 -25
c-32 -2 -84 -2 -115 0 -32 2 -6 3 57 3 63 0 89 -1 58 -3z m-443 -12 c-3 -5 5
-12 17 -14 13 -2 -3 -5 -34 -6 -31 0 -59 3 -62 7 -2 4 10 6 29 4 18 -2 36 1
39 7 4 6 9 11 12 11 3 0 3 -4 -1 -9z m218 2 c-13 -2 -35 -2 -50 0 -16 2 -5 4
22 4 28 0 40 -2 28 -4z m-105 -10 c-10 -2 -28 -2 -40 0 -13 2 -5 4 17 4 22 1
32 -1 23 -4z m523 -132 c-12 -8 -13 -14 -3 -35 6 -14 16 -26 21 -26 18 0 22
19 10 42 -11 21 -11 22 5 9 25 -21 17 -55 -15 -59 -21 -2 -28 2 -33 22 -3 13
-9 31 -12 40 -5 12 0 16 17 16 19 0 21 -2 10 -9z m-296 -11 c3 -6 -1 -7 -9 -4
-11 4 -16 0 -16 -10 0 -9 8 -16 18 -17 10 0 12 -3 5 -6 -9 -3 -10 -10 -3 -24
6 -11 7 -19 1 -19 -7 0 -41 69 -41 85 0 9 39 5 45 -5z m74 -3 c6 -8 8 -17 4
-20 -3 -4 2 -17 13 -29 19 -23 19 -23 -2 -5 -25 21 -41 23 -24 2 10 -12 10
-15 -4 -15 -9 0 -16 8 -16 18 0 10 -7 28 -16 40 -14 21 -14 22 9 22 14 0 30
-6 36 -13z m74 -27 c14 -36 14 -40 0 -40 -9 0 -14 3 -10 6 3 4 0 22 -8 40 -8
19 -10 34 -6 34 4 0 15 -18 24 -40z m111 -29 c-2 -3 -10 1 -16 7 -18 18 -41
15 -34 -4 3 -8 2 -12 -4 -9 -16 10 -12 35 5 35 13 0 14 4 5 23 -7 13 0 8 19
-13 16 -19 27 -37 25 -39z m-391 19 c8 -22 12 -40 8 -40 -5 0 -15 18 -24 40
-8 22 -12 40 -8 40 5 0 15 -18 24 -40z m71 8 c21 -42 20 -48 -8 -48 -16 0 -25
7 -29 23 -2 12 -8 30 -12 40 -5 13 -2 17 13 17 13 0 26 -12 36 -32z m-141 -14
c12 -24 22 -34 32 -30 8 3 15 1 15 -4 0 -6 -10 -10 -22 -10 -17 0 -27 10 -40
40 -21 50 -8 53 15 4z m432 -104 c3 -6 -1 -7 -9 -4 -11 4 -16 0 -16 -10 0 -9
8 -16 18 -16 13 0 14 -2 3 -9 -20 -13 -3 -33 21 -25 14 4 18 2 14 -5 -4 -6
-17 -11 -29 -11 -17 0 -25 9 -34 37 -9 29 -9 40 0 45 16 10 25 10 32 -2z m-71
-19 c26 -28 17 -55 -19 -59 -17 -2 -27 -1 -23 3 4 4 1 23 -7 41 -14 33 -13 34
9 34 13 0 31 -9 40 -19z m-175 -31 c16 -33 17 -40 5 -40 -9 0 -13 4 -10 8 3 5
-4 23 -14 40 -11 18 -15 32 -10 32 5 0 18 -18 29 -40z m51 36 c0 -2 -7 -6 -15
-10 -8 -3 -15 -1 -15 4 0 6 7 10 15 10 8 0 15 -2 15 -4z m29 -54 c0 -14 -2
-14 -6 -2 -4 8 -13 21 -22 28 -14 11 -13 11 7 2 12 -6 22 -18 21 -28z m434
-89 c-19 -7 -16 -33 5 -33 14 0 14 -2 3 -9 -12 -8 -12 -12 -2 -25 11 -13 11
-16 -2 -16 -8 0 -17 12 -20 28 -3 15 -9 35 -12 45 -6 13 -2 17 16 16 13 0 18
-3 12 -6z m-254 -35 l21 -33 0 27 c0 15 5 30 10 33 6 3 10 0 10 -7 0 -7 7 -25
14 -40 13 -24 13 -28 0 -28 -8 0 -15 10 -15 23 -1 16 -2 18 -6 5 -2 -10 -8
-18 -11 -18 -11 0 -62 50 -62 60 0 20 19 9 39 -22z m125 1 c18 -35 14 -49 -14
-49 -11 0 -20 10 -24 24 -3 13 -9 31 -12 40 -12 32 34 18 50 -15z m36 16 c0
-8 5 -15 11 -15 6 0 8 7 5 16 -4 10 -1 14 6 11 7 -2 13 -12 13 -23 0 -10 4
-26 9 -34 6 -9 1 -7 -12 4 -23 20 -31 9 -10 -12 9 -9 9 -12 -3 -12 -9 0 -19
16 -26 40 -5 22 -6 40 -2 40 5 0 9 -7 9 -15z m-325 -5 c3 -6 -1 -7 -9 -4 -18
7 -20 -4 -6 -40 6 -16 6 -27 0 -31 -6 -4 -10 1 -10 9 0 32 -19 66 -35 60 -8
-3 -16 -14 -16 -23 -1 -14 -2 -14 -6 2 -2 9 -9 17 -14 17 -9 0 -7 -17 8 -57 3
-7 0 -13 -6 -13 -6 0 -11 6 -11 13 0 6 -7 25 -15 41 l-15 28 30 -4 c17 -3 33
-1 36 4 7 11 62 10 69 -2z m42 -30 c5 -22 7 -40 3 -40 -4 0 -11 11 -14 24 -3
13 -9 31 -12 40 -3 9 -2 16 3 16 5 0 14 -18 20 -40z m38 31 c-3 -6 3 -14 12
-20 10 -6 13 -11 6 -11 -7 0 -10 -7 -6 -16 3 -9 13 -14 24 -11 11 3 17 1 13
-4 -3 -5 -16 -9 -30 -9 -18 0 -24 5 -24 21 0 11 -5 29 -10 40 -9 15 -7 19 5
19 9 0 14 -4 10 -9z m-242 -8 c-19 -7 -16 -33 5 -33 13 0 14 -2 3 -9 -7 -5
-10 -14 -7 -20 4 -6 3 -11 -2 -11 -6 0 -13 11 -16 24 -3 13 -9 31 -12 40 -5
12 0 16 17 15 13 0 18 -3 12 -6z m-42 -75 c-10 -9 -12 -9 -7 -1 4 7 -4 19 -19
29 -14 9 -25 22 -25 30 0 7 13 1 32 -16 27 -25 30 -32 19 -42z m363 27 c3 -8
1 -15 -4 -15 -6 0 -10 7 -10 15 0 8 2 15 4 15 2 0 6 -7 10 -15z m81 -95 c0 -8
4 -21 9 -28 5 -8 3 -19 -4 -25 -9 -9 -11 -9 -8 2 2 7 -3 16 -11 19 -10 3 -12
0 -7 -14 5 -12 4 -15 -2 -9 -13 14 -23 61 -15 69 12 11 38 2 38 -14z m62 5 c3
-9 -3 -25 -13 -37 -19 -21 -19 -21 4 -16 12 4 22 2 22 -3 0 -5 -11 -9 -25 -9
-29 0 -30 3 -9 35 14 21 14 24 -3 34 -17 10 -17 10 0 11 10 0 20 -7 24 -15z
m47 -5 c3 -11 9 -29 12 -40 4 -14 1 -20 -10 -20 -9 0 -13 6 -10 13 3 8 0 26
-5 40 -6 15 -7 27 -1 27 5 0 11 -9 14 -20z m-326 -40 c4 -24 -12 -40 -40 -40
-12 0 -18 8 -18 23 0 12 -5 29 -10 37 -7 11 -5 17 8 21 23 9 56 -13 60 -41z
m50 43 c-22 -5 -24 -23 -3 -23 8 0 15 -5 15 -11 0 -5 -4 -7 -10 -4 -5 3 -10
-1 -10 -11 0 -11 6 -15 20 -11 11 3 20 1 20 -4 0 -5 -11 -9 -24 -9 -17 0 -26
7 -30 24 -3 13 -9 31 -12 40 -5 12 0 16 22 15 17 -1 22 -3 12 -6z m99 -27 c11
-35 8 -46 -9 -46 -6 0 -8 6 -5 13 2 6 0 24 -4 40 -11 40 6 33 18 -7z m-460
-158 c-2 -24 -4 -7 -4 37 0 44 2 63 4 43 2 -21 2 -57 0 -80z m773 65 c-11 -17
-11 -17 -6 0 3 10 6 24 7 30 0 9 2 9 5 0 3 -7 0 -20 -6 -30z m-814 -20 c-3 -4
-6 -1 -6 5 0 7 -8 12 -17 12 -15 0 -16 2 -3 10 10 6 17 4 23 -6 5 -9 6 -18 3
-21z m-69 2 c0 -12 -3 -12 -16 -3 -9 7 -18 14 -20 15 -2 2 5 3 16 3 11 0 20
-7 20 -15z m879 -157 c-29 -86 -69 -191 -89 -232 -40 -84 -95 -169 -106 -164
-4 2 -60 58 -125 124 l-116 122 90 73 c82 66 89 75 68 80 -13 3 28 8 91 11 96
4 116 8 127 23 50 69 -52 -130 -116 -225 -58 -87 -56 -89 15 -17 56 58 76 90
138 217 40 81 73 147 74 147 1 -1 -22 -73 -51 -159z m-22 103 c-9 -23 -18 -40
-20 -38 -2 2 4 22 13 45 9 23 18 40 20 38 2 -2 -4 -22 -13 -45z m-917 17 c-3
-8 -6 -5 -6 6 -1 11 2 17 5 13 3 -3 4 -12 1 -19z m70 -10 c-3 -8 -6 -5 -6 6
-1 11 2 17 5 13 3 -3 4 -12 1 -19z m-70 -40 c-3 -7 -5 -2 -5 12 0 14 2 19 5
13 2 -7 2 -19 0 -25z m133 14 c0 -5 -13 -7 -30 -4 -16 2 -30 6 -30 8 0 2 14 4
30 4 17 0 30 -4 30 -8z m-29 -55 c-6 -8 -8 -17 -4 -20 3 -4 -9 -6 -28 -6 -22
1 -26 3 -12 6 12 2 27 11 33 19 7 8 15 14 17 14 3 0 0 -6 -6 -13z m39 -12 c-7
-8 -17 -12 -23 -8 -6 4 -3 9 9 14 27 11 28 11 14 -6z m438 -42 c-18 -15 -58
-47 -88 -72 -30 -26 -50 -40 -46 -33 12 20 -80 111 -114 114 -31 2 119 14 213
16 l69 2 -34 -27z m-473 7 c-4 -7 23 -8 80 -4 l85 7 74 -71 73 -71 -101 -90
c-56 -49 -157 -146 -225 -214 l-124 -125 -31 19 c-34 21 -81 25 -91 9 -4 -6
-3 -10 2 -9 20 3 33 -2 33 -14 0 -19 27 -53 36 -45 4 5 -1 18 -12 30 -17 20
-16 19 12 -2 27 -22 28 -26 13 -32 -28 -11 -32 -28 -12 -51 18 -22 18 -22 -3
-4 -26 21 -38 22 -30 1 4 -9 2 -13 -5 -8 -6 4 -15 0 -21 -7 -7 -12 -8 -11 -6
1 1 8 -1 39 -5 67 -7 48 -9 52 -26 41 -48 -29 -63 -105 -30 -145 10 -11 15
-11 30 3 11 10 19 12 19 7 0 -6 -7 -14 -16 -17 -14 -5 -14 -9 -3 -24 7 -9 1
-6 -14 8 -16 14 -34 25 -40 25 -7 0 -41 4 -76 9 l-63 8 30 15 c27 13 33 13 71
-6 33 -17 41 -19 41 -7 0 8 -9 17 -19 21 -11 3 -31 15 -45 26 -24 19 -25 22
-11 42 18 25 21 133 4 139 -14 5 34 124 62 154 19 21 22 21 38 6 20 -19 5 -37
-16 -20 -17 13 -31 2 -16 -13 30 -30 110 32 87 68 -6 9 -16 19 -23 21 -10 3
-10 0 0 -16 15 -24 5 -54 -15 -46 -44 17 -26 44 156 229 32 34 56 64 52 68 -4
4 6 7 22 7 16 0 36 5 44 10 19 12 23 12 15 0z m-216 -72 c-3 -2 -34 -30 -69
-63 l-65 -60 60 63 c33 34 64 62 69 62 5 0 7 -1 5 -2z m1211 -172 c0 -3 -4 -8
-10 -11 -5 -3 -10 -1 -10 4 0 6 5 11 10 11 6 0 10 -2 10 -4z m160 -141 c13
-14 21 -25 18 -25 -2 0 -15 11 -28 25 -13 14 -21 25 -18 25 2 0 15 -11 28 -25z
m-1595 -154 c-21 -43 -29 -39 -8 4 9 19 18 33 21 31 2 -2 -4 -18 -13 -35z
m1559 -48 c9 -18 14 -33 12 -33 -6 0 -36 55 -36 66 0 11 5 3 24 -33z m-1171 2
c-10 -13 -25 -27 -33 -30 -8 -4 -2 8 14 24 36 37 43 40 19 6z m-403 -3 c0 -5
-7 -9 -15 -9 -8 0 -12 4 -9 9 3 4 9 8 15 8 5 0 9 -4 9 -8z m341 -9 c13 -16 12
-17 -3 -4 -10 7 -18 15 -18 17 0 8 8 3 21 -13z m-356 -22 c3 -6 -3 -9 -14 -8
-11 0 -17 5 -15 9 7 11 22 10 29 -1z m1575 -35 c0 -3 -14 -13 -31 -22 -17 -8
-29 -11 -25 -6 3 5 10 21 16 36 9 24 12 26 25 12 8 -8 15 -17 15 -20z m-1237
1 c4 3 7 1 7 -5 0 -18 -15 -15 -41 9 l-24 20 26 -15 c14 -9 29 -13 32 -9z
m1528 6 c13 -16 12 -17 -3 -4 -17 13 -22 21 -14 21 2 0 10 -8 17 -17z m-1901
3 c0 -2 -8 -10 -17 -17 -16 -13 -17 -12 -4 4 13 16 21 21 21 13z m460 -10 c0
-2 -8 -10 -17 -17 -16 -13 -17 -12 -4 4 13 16 21 21 21 13z m-490 -30 c0 -2
-8 -10 -17 -17 -16 -13 -17 -12 -4 4 13 16 21 21 21 13z m428 -67 l50 -65 -87
30 c-100 34 -100 34 -81 46 13 8 12 12 -5 25 -20 16 -20 16 2 6 32 -16 48 -14
34 3 -10 12 -8 13 8 9 13 -3 21 -1 21 8 0 15 -4 19 58 -62z m-458 27 c0 -2 -8
-10 -17 -17 -16 -13 -17 -12 -4 4 13 16 21 21 21 13z m295 -61 c-16 -14 -37
-24 -45 -24 -10 1 -9 3 3 6 10 3 16 11 13 18 -3 9 2 11 15 8 10 -3 19 0 19 6
0 6 6 11 13 11 6 -1 -1 -12 -18 -25z m1204 -26 c12 -11 29 -18 37 -15 9 3 12
2 9 -5 -4 -6 -19 -7 -36 -4 -20 5 -38 1 -55 -10 -17 -11 -42 -15 -82 -13 l-57
3 38 19 c36 19 37 19 51 1 16 -22 39 -11 31 15 -5 17 1 22 36 29 3 0 15 -8 28
-20z m-919 -34 c7 -8 8 -15 2 -15 -5 0 -15 7 -22 15 -7 8 -8 15 -2 15 5 0 15
-7 22 -15z"/>
<path d="M2540 2901 c0 -6 5 -13 10 -16 6 -3 10 1 10 9 0 9 -4 16 -10 16 -5 0
-10 -4 -10 -9z"/>
<path d="M2400 2890 c0 -5 5 -10 10 -10 6 0 10 5 10 10 0 6 -4 10 -10 10 -5 0
-10 -4 -10 -10z"/>
<path d="M2412 2859 c2 -7 10 -15 17 -17 8 -3 12 1 9 9 -2 7 -10 15 -17 17 -8
3 -12 -1 -9 -9z"/>
<path d="M2610 2745 c0 -16 26 -55 37 -55 16 0 17 32 1 48 -12 12 -38 17 -38
7z"/>
<path d="M2830 2580 c0 -5 5 -10 10 -10 6 0 10 5 10 10 0 6 -4 10 -10 10 -5 0
-10 -4 -10 -10z"/>
<path d="M2840 2545 c0 -8 7 -15 15 -15 9 0 12 6 9 15 -4 8 -10 15 -15 15 -5
0 -9 -7 -9 -15z"/>
<path d="M2785 2430 c3 -5 8 -10 11 -10 2 0 4 5 4 10 0 6 -5 10 -11 10 -5 0
-7 -4 -4 -10z"/>
<path d="M2550 2400 c0 -32 16 -48 32 -32 13 13 2 48 -17 56 -11 4 -15 -2 -15
-24z"/>
<path d="M2947 2135 c6 -17 25 -15 31 3 2 7 -5 12 -17 12 -14 0 -19 -5 -14
-15z"/>
<path d="M3021 2102 c-6 -12 -11 -29 -10 -39 0 -11 6 -6 15 16 16 37 12 55 -5
23z"/>
<path d="M1855 1703 c-3 -37 -2 -97 4 -133 6 -36 11 -69 11 -75 0 -5 11 7 25
27 14 20 32 41 41 46 13 7 11 19 -16 95 -43 118 -56 126 -65 40z"/>
<path d="M2085 1634 c17 -58 18 -58 40 -34 17 19 17 21 -1 41 -10 11 -27 25
-36 30 -16 9 -16 6 -3 -37z"/>
<path d="M1975 1610 c3 -5 14 -10 23 -10 15 0 15 2 2 10 -20 13 -33 13 -25 0z"/>
<path d="M2074 1369 c-10 -17 13 -36 27 -22 12 12 4 33 -11 33 -5 0 -12 -5
-16 -11z"/>
<path d="M4290 3884 c-52 -42 -97 -77 -99 -79 -8 -9 73 -107 101 -121 42 -22
108 5 108 45 0 9 15 23 33 31 27 13 33 21 35 53 3 32 -3 47 -39 93 -23 30 -42
54 -43 54 0 -1 -44 -35 -96 -76z m119 -71 c-11 -12 -16 -11 -37 11 -22 22 -24
27 -12 41 13 16 16 15 37 -10 19 -22 21 -30 12 -42z m-59 -55 c0 -29 -28 -33
-56 -8 -28 28 -31 45 -6 59 21 12 62 -22 62 -51z"/>
<path d="M606 3729 c-15 -22 -14 -24 90 -93 101 -67 107 -69 120 -51 8 10 14
22 14 26 0 4 -36 30 -81 58 -45 29 -91 59 -104 67 -21 14 -24 13 -39 -7z"/>
<path d="M4460 3648 c-58 -34 -107 -62 -108 -64 -5 -4 91 -164 98 -164 3 0 13
7 24 15 18 13 17 16 -13 65 -17 27 -31 54 -31 58 0 4 38 29 85 56 71 42 82 52
74 67 -5 10 -13 20 -17 23 -4 2 -55 -23 -112 -56z"/>
<path d="M11320 3456 l0 -175 -46 26 c-30 17 -67 27 -108 30 -124 10 -229 -45
-284 -151 -23 -45 -26 -62 -26 -146 -1 -75 4 -105 20 -140 40 -88 113 -138
213 -147 85 -8 138 11 192 67 l46 47 17 -38 c20 -44 74 -83 93 -67 19 16 16
28 -13 51 -52 41 -54 57 -54 452 l0 365 -25 0 -25 0 0 -174z m-52 -193 l52
-24 0 -158 0 -158 -29 -40 c-78 -107 -250 -114 -335 -13 -36 44 -60 130 -53
200 16 184 190 276 365 193z"/>
<path d="M1488 3557 c-50 -81 -72 -194 -44 -233 19 -25 30 -13 51 56 14 50 33
220 24 220 -2 0 -16 -19 -31 -43z"/>
<path d="M531 3577 c-13 -6 -39 -39 -58 -73 l-33 -61 109 -56 c60 -32 113 -57
118 -57 15 0 63 109 63 145 0 42 -32 75 -74 75 -16 0 -37 6 -45 14 -25 22 -54
27 -80 13z m44 -58 c7 -11 -13 -69 -24 -69 -3 0 -12 4 -19 9 -12 7 -11 14 2
40 17 32 30 39 41 20z m95 -34 c11 -13 10 -22 -3 -50 -15 -32 -18 -34 -42 -23
-30 14 -30 14 -5 56 22 36 32 39 50 17z"/>
<path d="M6862 3578 c-27 -27 -11 -88 23 -88 24 0 35 17 35 54 0 24 -17 46
-35 46 -6 0 -16 -5 -23 -12z"/>
<path d="M7762 3578 c-27 -27 -11 -88 23 -88 24 0 35 17 35 54 0 24 -17 46
-35 46 -6 0 -16 -5 -23 -12z"/>
<path d="M9802 3578 c-27 -27 -11 -88 23 -88 24 0 35 17 35 54 0 24 -17 46
-35 46 -6 0 -16 -5 -23 -12z"/>
<path d="M1361 3505 c-25 -66 -38 -181 -27 -239 12 -62 66 -99 66 -45 0 13 6
19 18 17 10 -2 17 3 17 12 0 8 -5 14 -11 13 -8 -1 -13 39 -16 125 -3 70 -10
138 -15 152 -9 23 -11 20 -32 -35z"/>
<path d="M5940 3135 l0 -375 25 0 25 0 0 337 0 337 73 -125 c171 -292 232
-389 247 -386 8 1 83 117 167 256 l153 255 0 -337 0 -337 25 0 25 0 0 376 0
375 -32 -3 c-30 -3 -40 -17 -182 -255 -83 -139 -153 -252 -156 -253 -3 0 -74
115 -159 255 -144 238 -156 255 -183 255 l-28 0 0 -375z"/>
<path d="M4580 3417 c-58 -29 -106 -53 -108 -54 -9 -4 21 -43 33 -43 8 0 62
23 119 52 99 49 103 53 93 75 -5 13 -15 23 -21 22 -6 0 -58 -24 -116 -52z"/>
<path d="M8537 3463 c-3 -5 -8 -36 -12 -70 l-7 -63 -54 0 c-47 0 -54 -2 -54
-20 0 -18 7 -20 54 -20 l55 0 3 -217 c3 -197 5 -221 23 -252 37 -63 131 -89
214 -60 39 14 39 45 1 42 -87 -7 -122 -4 -142 14 -42 37 -48 72 -48 278 l0
195 115 0 c108 0 115 1 115 20 0 19 -7 20 -115 20 l-115 0 0 70 c0 54 -3 70
-14 70 -8 0 -17 -3 -19 -7z"/>
<path d="M1215 3327 c-4 -9 -5 -66 -3 -125 5 -142 44 -232 100 -232 19 0 20 4
14 62 -8 68 -55 222 -85 278 -16 29 -21 32 -26 17z"/>
<path d="M7267 3325 c-28 -10 -65 -33 -92 -58 -40 -39 -44 -41 -49 -22 -3 11
-6 35 -6 53 0 25 -4 32 -20 32 -20 0 -20 -7 -20 -285 l0 -285 25 0 25 0 0 198
0 199 29 40 c81 112 283 129 355 30 19 -26 21 -45 24 -248 l3 -219 25 0 25 0
-3 228 c-3 214 -4 229 -25 262 -47 76 -183 111 -296 75z"/>
<path d="M8068 3331 c-106 -35 -156 -128 -112 -212 20 -40 77 -64 190 -83 111
-18 136 -27 163 -62 40 -51 18 -120 -52 -155 -51 -26 -155 -28 -232 -5 -65 20
-72 20 -78 -4 -8 -30 82 -55 203 -55 79 0 102 4 137 22 112 61 124 212 20 266
-19 10 -84 27 -143 37 -115 21 -153 39 -168 83 -14 39 13 89 60 112 47 22 160
23 224 1 48 -16 60 -14 60 13 0 12 -13 22 -37 30 -48 16 -200 23 -235 12z"/>
<path d="M8978 3330 c-117 -35 -186 -164 -176 -325 11 -165 103 -255 262 -255
87 0 196 39 196 69 0 29 -11 31 -50 11 -50 -26 -141 -39 -193 -29 -23 4 -45 8
-49 9 -5 0 -26 16 -48 36 -42 38 -70 106 -70 171 l0 33 208 2 207 3 3 55 c6
106 -30 174 -112 211 -43 19 -129 24 -178 9z m138 -45 c58 -11 104 -78 104
-149 l0 -46 -184 0 -184 0 10 42 c12 54 41 102 78 128 30 21 102 40 130 35 8
-2 29 -6 46 -10z"/>
<path d="M9575 3324 c-42 -22 -81 -61 -96 -97 l-13 -31 -7 24 c-4 14 -7 44 -8
68 -1 35 -4 42 -21 42 -20 0 -20 -7 -20 -285 l0 -285 25 0 25 0 0 185 c0 211
5 231 79 298 43 39 91 53 147 44 31 -5 34 -3 34 18 0 12 -7 26 -16 29 -29 11
-99 6 -129 -10z"/>
<path d="M10160 3325 c-141 -44 -222 -219 -176 -379 24 -83 99 -158 180 -181
211 -61 391 87 373 306 -7 85 -38 149 -95 199 -73 65 -181 86 -282 55z m178
-47 c45 -13 98 -62 125 -112 29 -55 31 -184 3 -236 -45 -86 -117 -132 -205
-132 -97 0 -169 43 -214 127 -29 54 -31 183 -3 235 61 115 165 157 294 118z"/>
<path d="M11678 3330 c-117 -35 -186 -164 -176 -325 11 -165 103 -255 262
-255 87 0 196 39 196 69 0 29 -11 31 -50 11 -50 -26 -141 -39 -193 -29 -23 4
-45 8 -49 9 -5 0 -26 16 -48 36 -42 38 -70 106 -70 171 l0 33 208 2 207 3 3
55 c6 106 -30 174 -112 211 -43 19 -129 24 -178 9z m138 -45 c58 -11 104 -78
104 -149 l0 -46 -184 0 -184 0 10 42 c12 54 41 102 78 128 30 21 102 40 130
35 8 -2 29 -6 46 -10z"/>
<path d="M6860 3045 l0 -285 25 0 25 0 0 285 0 285 -25 0 -25 0 0 -285z"/>
<path d="M7760 3045 l0 -285 25 0 25 0 0 285 0 285 -25 0 -25 0 0 -285z"/>
<path d="M9800 3045 l0 -285 25 0 25 0 0 285 0 285 -25 0 -25 0 0 -285z"/>
<path d="M404 3291 c-34 -21 -64 -75 -64 -116 0 -126 160 -179 237 -78 49 64
30 163 -38 199 -39 20 -98 18 -135 -5z m95 -41 c4 0 17 -9 29 -20 45 -42 11
-130 -49 -130 -45 0 -93 51 -84 88 11 45 51 77 83 66 8 -2 17 -4 21 -4z"/>
<path d="M4633 3281 c-67 -31 -90 -100 -59 -175 14 -34 62 -79 79 -73 6 2 15
11 21 20 8 12 4 21 -18 38 -73 57 -43 149 49 149 38 0 68 -46 62 -97 -4 -37
-2 -42 20 -46 19 -3 27 1 34 20 13 35 11 52 -10 100 -33 72 -104 98 -178 64z"/>
<path d="M1460 3200 c0 -5 7 -10 15 -10 8 0 15 5 15 10 0 6 -7 10 -15 10 -8 0
-15 -4 -15 -10z"/>
<path d="M3705 3141 c-6 -11 9 -23 19 -14 9 9 7 23 -3 23 -6 0 -12 -4 -16 -9z"/>
<path d="M1342 3108 c6 -18 28 -21 28 -4 0 9 -7 16 -16 16 -9 0 -14 -5 -12
-12z"/>
<path d="M2961 3026 c-57 -58 -62 -66 -51 -86 11 -21 14 -20 76 49 61 66 73
82 58 80 -4 0 -10 4 -13 10 -4 6 -33 -16 -70 -53z"/>
<path d="M3816 3062 c-3 -6 -1 -14 5 -17 15 -10 25 3 12 16 -7 7 -13 7 -17 1z"/>
<path d="M298 2963 c-28 -33 -38 -61 -38 -110 0 -81 47 -123 139 -123 42 0 54
5 80 30 32 32 48 84 36 119 -4 12 -2 21 4 21 6 0 11 11 11 24 0 21 -6 25 -47
31 -27 3 -57 9 -69 11 -19 5 -22 -1 -32 -52 -7 -32 -11 -58 -9 -59 1 -2 12 -6
24 -9 18 -6 22 -2 28 24 8 35 30 40 38 9 13 -50 -40 -107 -88 -95 -64 16 -84
82 -40 134 24 28 24 30 6 46 -22 20 -24 20 -43 -1z"/>
<path d="M4620 2969 c0 -24 21 -47 49 -52 25 -5 30 -12 36 -49 7 -37 5 -44
-19 -64 -27 -24 -32 -40 -17 -63 7 -11 32 3 117 64 60 43 111 79 112 81 2 1 1
11 -2 21 -5 15 -31 25 -129 46 -137 30 -147 31 -147 16z m173 -79 c13 -1 -22
-30 -35 -30 -4 0 -8 9 -8 21 0 15 4 19 16 15 9 -3 21 -6 27 -6z"/>
<path d="M10096 2460 c-25 -55 -46 -102 -46 -105 0 -3 30 -5 68 -5 l67 1 88
104 88 105 -109 0 -109 0 -47 -100z"/>
<path d="M1040 2453 c0 -21 79 -131 120 -165 40 -35 94 -57 107 -44 4 3 13 0
21 -7 33 -27 -17 49 -60 92 -66 67 -188 146 -188 124z"/>
<path d="M5890 2085 l0 -375 300 0 300 0 0 90 0 90 -195 0 -195 0 0 65 0 65
165 0 165 0 0 75 0 75 -165 0 -165 0 0 55 0 55 190 0 190 0 0 90 0 90 -295 0
-295 0 0 -375z"/>
<path d="M3890 2309 c0 -24 23 -21 28 4 2 10 -3 17 -12 17 -10 0 -16 -9 -16
-21z"/>
<path d="M6737 2280 c-85 -22 -155 -77 -195 -154 -22 -43 -26 -64 -26 -131 0
-128 48 -211 152 -262 51 -25 68 -28 157 -28 88 0 107 3 158 27 31 15 57 29
57 31 0 10 -41 137 -44 137 -2 0 -23 -9 -47 -20 -58 -26 -134 -26 -177 0 -61
37 -79 133 -37 196 33 51 129 69 202 39 19 -8 39 -15 43 -15 8 0 50 113 50
133 0 4 -21 17 -47 29 -53 23 -185 33 -246 18z"/>
<path d="M7229 2275 c-81 -26 -140 -73 -174 -139 -26 -53 -30 -70 -30 -145 0
-77 3 -92 30 -140 58 -105 175 -159 321 -148 177 13 284 123 284 292 0 120
-54 211 -155 261 -69 33 -203 43 -276 19z m185 -166 c53 -42 69 -107 42 -173
-43 -103 -182 -103 -228 0 -31 72 -5 160 56 184 40 16 102 11 130 -11z"/>
<path d="M8001 2276 c-24 -8 -59 -29 -77 -47 -19 -18 -36 -31 -38 -28 -2 2
-11 21 -19 42 l-16 37 -70 0 -71 0 0 -285 0 -285 95 0 95 0 0 174 0 174 34 30
c61 53 150 51 175 -4 7 -16 11 -91 11 -199 l0 -175 95 0 95 0 0 218 c0 192 -3
222 -19 259 -29 64 -84 95 -174 99 -44 3 -89 -2 -116 -10z"/>
<path d="M8569 2275 c-81 -26 -140 -73 -174 -139 -26 -53 -30 -70 -30 -145 0
-77 3 -92 30 -140 58 -105 175 -159 321 -148 177 13 284 123 284 292 0 120
-54 211 -155 261 -69 33 -203 43 -276 19z m185 -166 c53 -42 69 -107 42 -173
-43 -103 -182 -103 -228 0 -31 72 -5 160 56 184 40 16 102 11 130 -11z"/>
<path d="M9333 2279 c-18 -5 -49 -26 -69 -45 -19 -20 -36 -34 -37 -32 -2 1
-10 20 -20 41 l-17 37 -70 0 -70 0 0 -285 0 -285 95 0 95 0 2 186 c3 187 3
187 28 206 14 10 42 21 62 24 30 5 41 2 62 -19 l26 -26 0 -186 0 -185 95 0 95
0 2 186 c3 186 3 187 28 205 14 10 39 22 57 25 26 5 37 1 57 -19 l26 -26 0
-186 0 -185 96 0 95 0 -3 233 c-3 211 -5 235 -23 265 -28 47 -76 73 -145 79
-76 7 -139 -15 -178 -63 l-28 -34 -14 25 c-23 43 -74 67 -148 71 -37 2 -82 -1
-99 -7z"/>
<path d="M10455 2284 c-16 -3 -54 -12 -83 -20 -42 -12 -52 -18 -48 -32 3 -9 8
-38 12 -65 3 -26 10 -49 14 -52 5 -3 34 2 66 10 86 22 179 20 204 -5 11 -11
20 -31 20 -44 0 -22 -4 -23 -92 -30 -121 -8 -162 -20 -206 -61 -34 -31 -36
-37 -40 -101 -2 -56 1 -75 17 -102 40 -62 122 -92 218 -77 36 5 56 16 85 45
l38 37 16 -24 c19 -30 87 -62 131 -63 37 0 34 -3 67 83 l25 68 -23 9 c-13 5
-28 15 -33 22 -4 7 -10 74 -13 149 -5 131 -6 137 -34 173 -43 57 -101 79 -216
82 -52 1 -108 0 -125 -2z m183 -376 c-4 -38 -54 -78 -98 -78 -36 0 -64 32 -56
64 7 29 45 44 114 45 43 1 43 1 40 -31z"/>
<path d="M10040 1995 l0 -285 95 0 95 0 0 285 0 285 -95 0 -95 0 0 -285z"/>
<path d="M3621 2198 c-13 -36 -25 -101 -28 -154 -5 -77 -3 -97 15 -137 22 -49
53 -64 66 -31 18 47 -4 357 -26 380 -3 3 -16 -23 -27 -58z"/>
<path d="M1274 2189 c-10 -17 13 -36 27 -22 12 12 4 33 -11 33 -5 0 -12 -5
-16 -11z"/>
<path d="M436 1998 c-22 -30 -20 -54 5 -79 15 -15 28 -19 47 -14 52 12 67 60
32 95 -27 27 -65 26 -84 -2z"/>
<path d="M4616 2004 c-25 -25 -20 -71 10 -91 24 -15 29 -15 53 -2 16 9 27 25
29 43 6 53 -55 87 -92 50z"/>
<path d="M1133 1942 c60 -67 243 -118 277 -77 12 15 12 19 -4 30 -23 17 -155
51 -231 60 -59 7 -60 7 -42 -13z"/>
<path d="M3985 1913 c-16 -2 -63 -11 -104 -19 -140 -30 -198 -70 -135 -94 38
-15 75 -12 143 9 59 18 181 88 181 104 0 7 -29 7 -85 0z"/>
<path d="M1505 1871 c-8 -15 3 -31 21 -31 9 0 14 7 12 17 -4 20 -24 28 -33 14z"/>
<path d="M1427 1844 c-14 -14 -7 -35 11 -32 9 2 17 10 17 17 0 16 -18 25 -28
15z"/>
<path d="M3595 1831 c-8 -15 3 -31 21 -31 9 0 14 7 12 17 -4 20 -24 28 -33 14z"/>
<path d="M3195 1789 c-11 -17 1 -21 15 -4 8 9 8 15 2 15 -6 0 -14 -5 -17 -11z"/>
<path d="M3696 1793 c-12 -12 -6 -33 9 -33 8 0 15 6 15 14 0 17 -14 28 -24 19z"/>
<path d="M3139 1583 c-89 -85 -102 -99 -123 -138 -28 -51 -11 -56 32 -9 20 22
48 49 63 60 14 10 5 1 -19 -21 -31 -29 -41 -45 -36 -58 3 -9 11 -17 16 -17 18
0 73 52 94 90 l21 37 -21 -4 c-16 -4 -18 -2 -7 5 12 8 8 11 -15 15 -19 3 -17
4 7 2 35 -3 36 -1 52 46 8 27 11 49 6 49 -5 0 -36 -26 -70 -57z m-29 -126 c0
-2 -10 -12 -22 -23 l-23 -19 19 23 c18 21 26 27 26 19z"/>
<path d="M1444 1534 c27 -24 29 -24 48 -7 20 18 20 18 -4 24 -12 4 -34 7 -48
8 l-25 0 29 -25z"/>
<path d="M3100 1405 c-19 -20 -20 -25 -7 -25 20 0 49 29 42 41 -8 12 -8 12
-35 -16z"/>
<path d="M3120 1380 c-14 -10 -22 -22 -18 -26 9 -8 58 22 58 36 0 15 -12 12
-40 -10z"/>
<path d="M875 1312 c-71 -24 -125 -86 -132 -154 -6 -60 29 -125 83 -152 23
-12 39 -26 37 -33 -2 -6 3 -23 12 -37 l17 -26 37 29 c20 16 53 44 74 63 l37
33 -48 55 -49 54 -27 -17 c-25 -17 -26 -19 -11 -40 20 -28 19 -37 -3 -37 -24
0 -59 37 -67 72 -5 21 0 33 27 62 73 77 134 48 194 -92 0 -1 15 3 32 9 25 9
32 17 32 38 0 28 -43 104 -76 133 -45 39 -118 56 -169 40z"/>
<path d="M4087 1248 l-35 -42 25 -51 c14 -27 52 -101 85 -162 l60 -113 33 41
c34 40 34 40 18 74 l-16 34 39 43 c21 24 43 42 49 42 5 -1 22 -5 36 -9 22 -5
31 -1 58 34 24 29 29 42 19 46 -22 8 -331 105 -334 105 -1 0 -18 -19 -37 -42z
m169 -101 c4 -4 -3 -18 -16 -32 l-23 -24 -28 45 c-16 24 -29 46 -29 48 0 6 88
-28 96 -37z"/>
<path d="M2116 1261 c-7 -11 18 -33 27 -24 4 3 7 12 7 20 0 15 -26 18 -34 4z"/>
<path d="M2960 1215 c0 -8 7 -15 15 -15 8 0 15 7 15 15 0 8 -7 15 -15 15 -8 0
-15 -7 -15 -15z"/>
<path d="M2091 1200 c-54 -20 -180 -93 -222 -131 l-24 -20 70 5 c128 8 245 71
261 139 8 33 -7 35 -85 7z"/>
<path d="M2875 1190 c-12 -20 30 -73 81 -102 54 -30 178 -61 223 -56 25 3 23
5 -24 41 -64 48 -220 127 -250 127 -13 0 -27 -5 -30 -10z"/>
<path d="M1180 960 c-73 -96 -93 -139 -84 -184 13 -70 108 -146 183 -146 53 0
84 24 159 123 l71 95 -40 28 c-39 26 -40 27 -53 8 -8 -10 -38 -50 -68 -89 -60
-79 -87 -90 -131 -55 -43 34 -35 64 39 160 l65 85 -33 28 c-18 15 -36 27 -40
27 -4 0 -35 -36 -68 -80z"/>
<path d="M3727 915 c-17 -15 -25 -30 -21 -38 4 -6 50 -67 102 -134 83 -107 96
-121 111 -110 84 61 181 142 181 152 0 6 -11 22 -24 34 l-25 23 -58 -46 c-33
-25 -62 -46 -65 -46 -3 0 -38 43 -78 95 -40 52 -78 95 -84 95 -6 0 -24 -12
-39 -25z"/>
<path d="M3436 743 l-48 -25 6 -131 c4 -73 9 -155 12 -184 l6 -52 44 22 c41
19 44 24 44 59 0 36 3 40 55 65 l55 27 23 -22 c29 -27 37 -27 89 -1 34 17 38
23 27 33 -18 17 -218 194 -244 217 -19 16 -22 16 -69 -8z m114 -163 c0 -9 -51
-32 -57 -26 -3 3 -8 27 -10 53 l-5 48 36 -34 c20 -19 36 -38 36 -41z"/>
<path d="M1577 606 l-128 -123 48 -20 49 -20 29 23 30 23 58 -26 c56 -26 57
-27 51 -60 -6 -32 -4 -34 41 -54 26 -11 48 -19 50 -17 1 1 6 83 10 180 l7 177
-41 20 c-22 12 -48 21 -58 20 -10 0 -76 -55 -146 -123z m146 -77 c-5 -5 -23
-3 -41 3 l-32 12 38 39 37 38 3 -42 c2 -23 -1 -46 -5 -50z"/>
<path d="M1976 597 c-10 -52 -8 -55 40 -63 25 -3 48 -13 51 -20 4 -11 -23
-155 -43 -225 -3 -12 6 -19 38 -27 24 -6 46 -8 49 -4 3 4 16 57 29 117 13 61
26 113 29 117 3 4 27 2 54 -4 53 -13 62 -8 70 38 l6 30 -159 35 -158 35 -6
-29z"/>
<path d="M3119 616 l-47 -9 -32 -86 -33 -86 -58 64 -59 64 -47 -7 c-25 -3 -48
-8 -51 -10 -2 -3 11 -77 30 -166 l33 -162 44 6 c25 3 46 7 47 9 2 1 -6 43 -17
92 -10 49 -19 91 -19 94 0 3 29 -23 65 -59 l64 -64 19 45 c10 24 24 61 31 82
7 20 14 37 16 37 1 0 10 -41 20 -91 l18 -91 40 6 c22 4 43 9 47 11 6 4 -56
327 -63 330 -1 0 -23 -3 -48 -9z"/>
<path d="M2407 535 c-4 -9 -7 -86 -7 -171 l0 -154 58 0 c33 0 93 -3 135 -6
l77 -7 0 40 0 40 -46 7 c-26 3 -66 6 -90 6 -40 0 -44 2 -44 25 0 24 2 25 75
25 l75 0 0 35 0 35 -70 0 c-68 0 -70 1 -70 25 0 25 1 25 85 25 l85 0 0 40 0
40 -77 0 c-43 0 -101 3 -129 6 -42 5 -52 4 -57 -11z"/>
</g>
</svg>
