<svg width="40" height="40" viewBox="0 0 40 40" fill="none" xmlns="http://www.w3.org/2000/svg">
<path d="M26.525 17.25L22.75 13.475C21.9584 12.6834 20.8667 12.2584 19.75 12.3167L15.5834 12.5167C13.9167 12.5917 12.5917 13.9167 12.5084 15.575L12.3084 19.7417C12.2584 20.8584 12.675 21.95 13.4667 22.7417L17.2417 26.5167C18.7917 28.0667 21.3084 28.0667 22.8667 26.5167L26.525 22.8584C28.0834 21.3167 28.0834 18.8 26.525 17.25ZM17.9167 20.3167C16.5917 20.3167 15.5167 19.2417 15.5167 17.9167C15.5167 16.5917 16.5917 15.5167 17.9167 15.5167C19.2417 15.5167 20.3167 16.5917 20.3167 17.9167C20.3167 19.2417 19.2417 20.3167 17.9167 20.3167Z" fill="white"/>
</svg>
