<svg width="40" height="40" viewBox="0 0 40 40" fill="none" xmlns="http://www.w3.org/2000/svg">
<path d="M20.1331 19.0584C20.0498 19.0501 19.9498 19.0501 19.8581 19.0584C17.8748 18.9917 16.2998 17.3667 16.2998 15.3667C16.2998 13.3251 17.9498 11.6667 19.9998 11.6667C22.0415 11.6667 23.6998 13.3251 23.6998 15.3667C23.6915 17.3667 22.1165 18.9917 20.1331 19.0584Z" stroke="white" stroke-width="1.5" stroke-linecap="round" stroke-linejoin="round"/>
<path d="M15.9666 22.1333C13.9499 23.4833 13.9499 25.6833 15.9666 27.0249C18.2583 28.5583 22.0166 28.5583 24.3083 27.0249C26.3249 25.6749 26.3249 23.4749 24.3083 22.1333C22.0249 20.6083 18.2666 20.6083 15.9666 22.1333Z" stroke="white" stroke-width="1.5" stroke-linecap="round" stroke-linejoin="round"/>
</svg>
