<svg width="40" height="40" viewBox="0 0 40 40" fill="none" xmlns="http://www.w3.org/2000/svg">
<path d="M20 22.5C21.3807 22.5 22.5 21.3807 22.5 20C22.5 18.6193 21.3807 17.5 20 17.5C18.6193 17.5 17.5 18.6193 17.5 20C17.5 21.3807 18.6193 22.5 20 22.5Z" stroke="white" stroke-width="1.5" stroke-miterlimit="10" stroke-linecap="round" stroke-linejoin="round"/>
<path d="M11.6666 20.7334V19.2667C11.6666 18.4001 12.375 17.6834 13.25 17.6834C14.7583 17.6834 15.375 16.6167 14.6166 15.3084C14.1833 14.5584 14.4416 13.5834 15.2 13.1501L16.6416 12.3251C17.3 11.9334 18.15 12.1667 18.5416 12.8251L18.6333 12.9834C19.3833 14.2917 20.6166 14.2917 21.375 12.9834L21.4666 12.8251C21.8583 12.1667 22.7083 11.9334 23.3666 12.3251L24.8083 13.1501C25.5666 13.5834 25.825 14.5584 25.3916 15.3084C24.6333 16.6167 25.25 17.6834 26.7583 17.6834C27.625 17.6834 28.3416 18.3917 28.3416 19.2667V20.7334C28.3416 21.6001 27.6333 22.3167 26.7583 22.3167C25.25 22.3167 24.6333 23.3834 25.3916 24.6917C25.825 25.4501 25.5666 26.4167 24.8083 26.8501L23.3666 27.6751C22.7083 28.0667 21.8583 27.8334 21.4666 27.1751L21.375 27.0167C20.625 25.7084 19.3916 25.7084 18.6333 27.0167L18.5416 27.1751C18.15 27.8334 17.3 28.0667 16.6416 27.6751L15.2 26.8501C14.4416 26.4167 14.1833 25.4417 14.6166 24.6917C15.375 23.3834 14.7583 22.3167 13.25 22.3167C12.375 22.3167 11.6666 21.6001 11.6666 20.7334Z" stroke="white" stroke-width="1.5" stroke-miterlimit="10" stroke-linecap="round" stroke-linejoin="round"/>
</svg>
