<svg width="40" height="40" viewBox="0 0 40 40" fill="none" xmlns="http://www.w3.org/2000/svg">
<path d="M13.4753 22.7502L17.2503 26.5252C18.8003 28.0752 21.317 28.0752 22.8753 26.5252L26.5337 22.8668C28.0837 21.3168 28.0837 18.8002 26.5337 17.2418L22.7503 13.4752C21.9587 12.6835 20.867 12.2585 19.7503 12.3168L15.5837 12.5168C13.917 12.5918 12.592 13.9168 12.5087 15.5752L12.3087 19.7418C12.2587 20.8668 12.6837 21.9585 13.4753 22.7502Z" stroke="white" stroke-width="1.5" stroke-linecap="round" stroke-linejoin="round"/>
<path d="M17.9163 19.9999C19.0669 19.9999 19.9997 19.0672 19.9997 17.9166C19.9997 16.766 19.0669 15.8333 17.9163 15.8333C16.7657 15.8333 15.833 16.766 15.833 17.9166C15.833 19.0672 16.7657 19.9999 17.9163 19.9999Z" stroke="white" stroke-width="1.5" stroke-linecap="round"/>
</svg>
