<svg width="56" height="58" viewBox="0 0 56 58" fill="none" xmlns="http://www.w3.org/2000/svg">
<path d="M49.5167 13.499C45.8682 12.529 42.2048 11.6512 38.5072 10.8387L38.511 10.8156L38.4899 7.73923C38.4881 5.56422 38.497 2.30357 33.1074 1.42939L27.0729 0.450606C21.7064 -0.419841 20.7066 2.53824 19.9757 4.7126L19.0138 7.58229C16.8494 7.37305 14.685 7.16381 12.5093 7.02367L7.73601 6.72221C6.75371 6.65744 5.92452 7.39756 5.86348 8.35683C5.80244 9.31609 6.51953 10.1416 7.50183 10.2063L12.2751 10.5078C24.5383 11.2677 36.6247 13.7008 48.6338 16.9015C48.7029 16.9127 48.749 16.9202 48.8181 16.9314C49.6933 17.0734 50.5617 16.5287 50.7996 15.6454C51.0218 14.7123 50.4691 13.748 49.5167 13.499Z" fill="#FF3B30"/>
<path d="M44.872 20.4934C44.312 19.91 43.542 19.5834 42.7487 19.5834H13.2554C12.462 19.5834 11.6687 19.91 11.132 20.4934C10.5954 21.0767 10.292 21.87 10.3387 22.6867L11.7854 46.6267C12.042 50.1734 12.3687 54.6067 20.512 54.6067H35.492C43.6354 54.6067 43.962 50.1967 44.2187 46.6267L45.6654 22.71C45.712 21.87 45.4087 21.0767 44.872 20.4934ZM31.8754 42.9167H24.1054C23.1487 42.9167 22.3554 42.1234 22.3554 41.1667C22.3554 40.21 23.1487 39.4167 24.1054 39.4167H31.8754C32.832 39.4167 33.6254 40.21 33.6254 41.1667C33.6254 42.1234 32.832 42.9167 31.8754 42.9167ZM33.8354 33.5834H22.1687C21.212 33.5834 20.4187 32.79 20.4187 31.8334C20.4187 30.8767 21.212 30.0834 22.1687 30.0834H33.8354C34.792 30.0834 35.5854 30.8767 35.5854 31.8334C35.5854 32.79 34.792 33.5834 33.8354 33.5834Z" fill="#FF3B30"/>
</svg>
